<svg xmlns="http://www.w3.org/2000/svg" version="1.1" xmlns:xlink="http://www.w3.org/1999/xlink" xmlns:svgjs="http://svgjs.com/svgjs" width="1440" height="560" preserveAspectRatio="none" viewBox="0 0 1440 560"><g mask="url(&quot;#SvgjsMask1119&quot;)" fill="none"><g mask="url(&quot;#SvgjsMask1120&quot;)"><path d="M1190 546L1190 350L966 126L966 14" stroke-width="4.67" stroke="rgba(19, 130, 203, 1)"></path><path d="M1183 546 a7 7 0 1 0 14 0 a7 7 0 1 0 -14 0zM959 14 a7 7 0 1 0 14 0 a7 7 0 1 0 -14 0z" fill="rgba(19, 130, 203, 1)"></path><path d="M126 70L266 70L658 462" stroke-width="4.67" stroke="rgba(19, 130, 203, 1)"></path><path d="M119 70 a7 7 0 1 0 14 0 a7 7 0 1 0 -14 0zM651 462 a7 7 0 1 0 14 0 a7 7 0 1 0 -14 0z" fill="rgba(19, 130, 203, 1)"></path><path d="M882 350L1022 210" stroke-width="4.67" stroke="rgba(19, 130, 203, 1)"></path><path d="M875 350 a7 7 0 1 0 14 0 a7 7 0 1 0 -14 0zM1015 210 a7 7 0 1 0 14 0 a7 7 0 1 0 -14 0z" fill="rgba(19, 130, 203, 1)"></path><path d="M238 322L350 210L350 182L266 98L14 98" stroke-width="4.67" stroke="rgba(19, 130, 203, 1)"></path><path d="M231 322 a7 7 0 1 0 14 0 a7 7 0 1 0 -14 0zM7 98 a7 7 0 1 0 14 0 a7 7 0 1 0 -14 0z" fill="rgba(19, 130, 203, 1)"></path><path d="M1386 406L1386 378L1442 322L1442 14" stroke-width="4.67" stroke="rgba(19, 130, 203, 1)"></path><path d="M1379 406 a7 7 0 1 0 14 0 a7 7 0 1 0 -14 0zM1435 14 a7 7 0 1 0 14 0 a7 7 0 1 0 -14 0z" fill="rgba(19, 130, 203, 1)"></path><path d="M210 518L406 518L434 546L546 546L630 462" stroke-width="4.67" stroke="rgba(19, 130, 203, 1)"></path><path d="M203 518 a7 7 0 1 0 14 0 a7 7 0 1 0 -14 0zM623 462 a7 7 0 1 0 14 0 a7 7 0 1 0 -14 0z" fill="rgba(19, 130, 203, 1)"></path><path d="M546 98L322 98L238 14L210 14L182 42L42 42L14 70" stroke-width="4.67" stroke="rgba(19, 130, 203, 1)"></path><path d="M539 98 a7 7 0 1 0 14 0 a7 7 0 1 0 -14 0zM7 70 a7 7 0 1 0 14 0 a7 7 0 1 0 -14 0z" fill="rgba(19, 130, 203, 1)"></path><path d="M238 126L266 126L322 182L322 210L14 518L14 546" stroke-width="4.67" stroke="rgba(19, 130, 203, 1)"></path><path d="M231 126 a7 7 0 1 0 14 0 a7 7 0 1 0 -14 0zM7 546 a7 7 0 1 0 14 0 a7 7 0 1 0 -14 0z" fill="rgba(19, 130, 203, 1)"></path><path d="M1190 42L1358 210L1358 238L1218 378L1218 546" stroke-width="4.67" stroke="rgba(19, 130, 203, 1)"></path><path d="M1183 42 a7 7 0 1 0 14 0 a7 7 0 1 0 -14 0zM1211 546 a7 7 0 1 0 14 0 a7 7 0 1 0 -14 0z" fill="rgba(19, 130, 203, 1)"></path><path d="M714 154L434 154L406 182" stroke-width="4.67" stroke="rgba(19, 130, 203, 1)"></path><path d="M707 154 a7 7 0 1 0 14 0 a7 7 0 1 0 -14 0zM399 182 a7 7 0 1 0 14 0 a7 7 0 1 0 -14 0z" fill="rgba(19, 130, 203, 1)"></path><path d="M266 462L294 490L434 490L546 378" stroke-width="4.67" stroke="rgba(19, 130, 203, 1)"></path><path d="M259 462 a7 7 0 1 0 14 0 a7 7 0 1 0 -14 0zM539 378 a7 7 0 1 0 14 0 a7 7 0 1 0 -14 0z" fill="rgba(19, 130, 203, 1)"></path><path d="M630 518L1022 518L1162 378" stroke-width="4.67" stroke="rgba(19, 130, 203, 1)"></path><path d="M623 518 a7 7 0 1 0 14 0 a7 7 0 1 0 -14 0zM1155 378 a7 7 0 1 0 14 0 a7 7 0 1 0 -14 0z" fill="rgba(19, 130, 203, 1)"></path><path d="M1218 14L1302 98L1302 126L1414 238L1414 322L1246 490L1246 546" stroke-width="4.67" stroke="rgba(19, 130, 203, 1)"></path><path d="M1211 14 a7 7 0 1 0 14 0 a7 7 0 1 0 -14 0zM1239 546 a7 7 0 1 0 14 0 a7 7 0 1 0 -14 0z" fill="rgba(19, 130, 203, 1)"></path><path d="M910 70L938 98L938 266L714 490L630 490" stroke-width="4.67" stroke="rgba(19, 130, 203, 1)"></path><path d="M903 70 a7 7 0 1 0 14 0 a7 7 0 1 0 -14 0zM623 490 a7 7 0 1 0 14 0 a7 7 0 1 0 -14 0z" fill="rgba(19, 130, 203, 1)"></path><path d="M98 294L14 210L14 126" stroke-width="4.67" stroke="rgba(19, 130, 203, 1)"></path><path d="M91 294 a7 7 0 1 0 14 0 a7 7 0 1 0 -14 0zM7 126 a7 7 0 1 0 14 0 a7 7 0 1 0 -14 0z" fill="rgba(19, 130, 203, 1)"></path><path d="M1302 182L1134 14L1022 14L994 42L994 126L1134 266" stroke-width="4.67" stroke="rgba(19, 130, 203, 1)"></path><path d="M1295 182 a7 7 0 1 0 14 0 a7 7 0 1 0 -14 0zM1127 266 a7 7 0 1 0 14 0 a7 7 0 1 0 -14 0z" fill="rgba(19, 130, 203, 1)"></path><path d="M882 546L1162 546" stroke-width="4.67" stroke="rgba(19, 130, 203, 1)"></path><path d="M875 546 a7 7 0 1 0 14 0 a7 7 0 1 0 -14 0zM1155 546 a7 7 0 1 0 14 0 a7 7 0 1 0 -14 0z" fill="rgba(19, 130, 203, 1)"></path><path d="M154 350L14 350" stroke-width="4.67" stroke="rgba(19, 130, 203, 1)"></path><path d="M147 350 a7 7 0 1 0 14 0 a7 7 0 1 0 -14 0zM7 350 a7 7 0 1 0 14 0 a7 7 0 1 0 -14 0z" fill="rgba(19, 130, 203, 1)"></path><path d="M70 434L126 378" stroke-width="4.67" stroke="rgba(19, 130, 203, 1)"></path><path d="M63 434 a7 7 0 1 0 14 0 a7 7 0 1 0 -14 0zM119 378 a7 7 0 1 0 14 0 a7 7 0 1 0 -14 0z" fill="rgba(19, 130, 203, 1)"></path><path d="M1162 406L1162 518" stroke-width="4.67" stroke="rgba(19, 130, 203, 1)"></path><path d="M1155 406 a7 7 0 1 0 14 0 a7 7 0 1 0 -14 0zM1155 518 a7 7 0 1 0 14 0 a7 7 0 1 0 -14 0z" fill="rgba(19, 130, 203, 1)"></path><path d="M70 322L70 294L14 238" stroke-width="4.67" stroke="rgba(19, 130, 203, 1)"></path><path d="M63 322 a7 7 0 1 0 14 0 a7 7 0 1 0 -14 0zM7 238 a7 7 0 1 0 14 0 a7 7 0 1 0 -14 0z" fill="rgba(19, 130, 203, 1)"></path><path d="M854 238L854 42L826 14L714 14L602 126L518 126" stroke-width="4.67" stroke="rgba(19, 130, 203, 1)"></path><path d="M847 238 a7 7 0 1 0 14 0 a7 7 0 1 0 -14 0zM511 126 a7 7 0 1 0 14 0 a7 7 0 1 0 -14 0z" fill="rgba(19, 130, 203, 1)"></path><path d="M126 154L238 266" stroke-width="4.67" stroke="rgba(19, 130, 203, 1)"></path><path d="M119 154 a7 7 0 1 0 14 0 a7 7 0 1 0 -14 0zM231 266 a7 7 0 1 0 14 0 a7 7 0 1 0 -14 0z" fill="rgba(19, 130, 203, 1)"></path><path d="M1106 182L1246 322" stroke-width="4.67" stroke="rgba(19, 130, 203, 1)"></path><path d="M1099 182 a7 7 0 1 0 14 0 a7 7 0 1 0 -14 0zM1239 322 a7 7 0 1 0 14 0 a7 7 0 1 0 -14 0z" fill="rgba(19, 130, 203, 1)"></path><path d="M1078 294L966 294L770 490L742 490" stroke-width="4.67" stroke="rgba(19, 130, 203, 1)"></path><path d="M1071 294 a7 7 0 1 0 14 0 a7 7 0 1 0 -14 0zM735 490 a7 7 0 1 0 14 0 a7 7 0 1 0 -14 0z" fill="rgba(19, 130, 203, 1)"></path><path d="M574 350L518 294L518 238L462 182L434 182" stroke-width="4.67" stroke="rgba(19, 130, 203, 1)"></path><path d="M567 350 a7 7 0 1 0 14 0 a7 7 0 1 0 -14 0zM427 182 a7 7 0 1 0 14 0 a7 7 0 1 0 -14 0z" fill="rgba(19, 130, 203, 1)"></path><path d="M490 14L350 14L322 42L294 42L266 14" stroke-width="4.67" stroke="rgba(19, 130, 203, 1)"></path><path d="M483 14 a7 7 0 1 0 14 0 a7 7 0 1 0 -14 0zM259 14 a7 7 0 1 0 14 0 a7 7 0 1 0 -14 0z" fill="rgba(19, 130, 203, 1)"></path><path d="M798 154L686 266L546 266" stroke-width="4.67" stroke="rgba(19, 130, 203, 1)"></path><path d="M791 154 a7 7 0 1 0 14 0 a7 7 0 1 0 -14 0zM539 266 a7 7 0 1 0 14 0 a7 7 0 1 0 -14 0z" fill="rgba(19, 130, 203, 1)"></path><path d="M574 98L574 14" stroke-width="4.67" stroke="rgba(19, 130, 203, 1)"></path><path d="M567 98 a7 7 0 1 0 14 0 a7 7 0 1 0 -14 0zM567 14 a7 7 0 1 0 14 0 a7 7 0 1 0 -14 0z" fill="rgba(19, 130, 203, 1)"></path><path d="M210 350L210 490L154 546L42 546" stroke-width="4.67" stroke="rgba(19, 130, 203, 1)"></path><path d="M203 350 a7 7 0 1 0 14 0 a7 7 0 1 0 -14 0zM35 546 a7 7 0 1 0 14 0 a7 7 0 1 0 -14 0z" fill="rgba(19, 130, 203, 1)"></path><path d="M182 434L182 378" stroke-width="4.67" stroke="rgba(19, 130, 203, 1)"></path><path d="M175 434 a7 7 0 1 0 14 0 a7 7 0 1 0 -14 0zM175 378 a7 7 0 1 0 14 0 a7 7 0 1 0 -14 0z" fill="rgba(19, 130, 203, 1)"></path><path d="M742 182L826 98L826 42" stroke-width="4.67" stroke="rgba(19, 130, 203, 1)"></path><path d="M735 182 a7 7 0 1 0 14 0 a7 7 0 1 0 -14 0zM819 42 a7 7 0 1 0 14 0 a7 7 0 1 0 -14 0z" fill="rgba(19, 130, 203, 1)"></path><path d="M126 14L14 14" stroke-width="4.67" stroke="rgba(19, 130, 203, 1)"></path><path d="M119 14 a7 7 0 1 0 14 0 a7 7 0 1 0 -14 0zM7 14 a7 7 0 1 0 14 0 a7 7 0 1 0 -14 0z" fill="rgba(19, 130, 203, 1)"></path><path d="M1134 434L1134 490L1106 518L1050 518" stroke-width="4.67" stroke="rgba(19, 130, 203, 1)"></path><path d="M1127 434 a7 7 0 1 0 14 0 a7 7 0 1 0 -14 0zM1043 518 a7 7 0 1 0 14 0 a7 7 0 1 0 -14 0z" fill="rgba(19, 130, 203, 1)"></path><path d="M434 350L322 462L294 462L238 406L238 350L266 322L490 322L518 350" stroke-width="4.67" stroke="rgba(19, 130, 203, 1)"></path><path d="M427 350 a7 7 0 1 0 14 0 a7 7 0 1 0 -14 0zM511 350 a7 7 0 1 0 14 0 a7 7 0 1 0 -14 0z" fill="rgba(19, 130, 203, 1)"></path><path d="M658 182L686 210L714 210" stroke-width="4.67" stroke="rgba(19, 130, 203, 1)"></path><path d="M651 182 a7 7 0 1 0 14 0 a7 7 0 1 0 -14 0zM707 210 a7 7 0 1 0 14 0 a7 7 0 1 0 -14 0z" fill="rgba(19, 130, 203, 1)"></path><path d="M1386 322L1302 406L1274 406L1246 378" stroke-width="4.67" stroke="rgba(19, 130, 203, 1)"></path><path d="M1379 322 a7 7 0 1 0 14 0 a7 7 0 1 0 -14 0zM1239 378 a7 7 0 1 0 14 0 a7 7 0 1 0 -14 0z" fill="rgba(19, 130, 203, 1)"></path><path d="M602 378L798 378L910 266L910 98L882 70L882 42" stroke-width="4.67" stroke="rgba(19, 130, 203, 1)"></path><path d="M595 378 a7 7 0 1 0 14 0 a7 7 0 1 0 -14 0zM875 42 a7 7 0 1 0 14 0 a7 7 0 1 0 -14 0z" fill="rgba(19, 130, 203, 1)"></path><path d="M938 378L994 378L1050 322L1134 322L1162 350" stroke-width="4.67" stroke="rgba(19, 130, 203, 1)"></path><path d="M931 378 a7 7 0 1 0 14 0 a7 7 0 1 0 -14 0zM1155 350 a7 7 0 1 0 14 0 a7 7 0 1 0 -14 0z" fill="rgba(19, 130, 203, 1)"></path><path d="M182 238L210 266L210 294L182 322L98 322" stroke-width="4.67" stroke="rgba(19, 130, 203, 1)"></path><path d="M175 238 a7 7 0 1 0 14 0 a7 7 0 1 0 -14 0zM91 322 a7 7 0 1 0 14 0 a7 7 0 1 0 -14 0z" fill="rgba(19, 130, 203, 1)"></path><path d="M994 406L910 490L798 490" stroke-width="4.67" stroke="rgba(19, 130, 203, 1)"></path><path d="M987 406 a7 7 0 1 0 14 0 a7 7 0 1 0 -14 0zM791 490 a7 7 0 1 0 14 0 a7 7 0 1 0 -14 0z" fill="rgba(19, 130, 203, 1)"></path><path d="M350 406L406 350" stroke-width="4.67" stroke="rgba(19, 130, 203, 1)"></path><path d="M343 406 a7 7 0 1 0 14 0 a7 7 0 1 0 -14 0zM399 350 a7 7 0 1 0 14 0 a7 7 0 1 0 -14 0z" fill="rgba(19, 130, 203, 1)"></path><path d="M238 210L210 210L126 126L42 126" stroke-width="4.67" stroke="rgba(19, 130, 203, 1)"></path><path d="M231 210 a7 7 0 1 0 14 0 a7 7 0 1 0 -14 0zM35 126 a7 7 0 1 0 14 0 a7 7 0 1 0 -14 0z" fill="rgba(19, 130, 203, 1)"></path><path d="M1386 490L1442 546" stroke-width="4.67" stroke="rgba(19, 130, 203, 1)"></path><path d="M1379 490 a7 7 0 1 0 14 0 a7 7 0 1 0 -14 0zM1435 546 a7 7 0 1 0 14 0 a7 7 0 1 0 -14 0z" fill="rgba(19, 130, 203, 1)"></path><path d="M266 406L294 434L322 434" stroke-width="4.67" stroke="rgba(19, 130, 203, 1)"></path><path d="M259 406 a7 7 0 1 0 14 0 a7 7 0 1 0 -14 0zM315 434 a7 7 0 1 0 14 0 a7 7 0 1 0 -14 0z" fill="rgba(19, 130, 203, 1)"></path><path d="M770 42L686 126L630 126" stroke-width="4.67" stroke="rgba(19, 130, 203, 1)"></path><path d="M763 42 a7 7 0 1 0 14 0 a7 7 0 1 0 -14 0zM623 126 a7 7 0 1 0 14 0 a7 7 0 1 0 -14 0z" fill="rgba(19, 130, 203, 1)"></path><path d="M910 378L938 406L966 406" stroke-width="4.67" stroke="rgba(19, 130, 203, 1)"></path><path d="M903 378 a7 7 0 1 0 14 0 a7 7 0 1 0 -14 0zM959 406 a7 7 0 1 0 14 0 a7 7 0 1 0 -14 0z" fill="rgba(19, 130, 203, 1)"></path><path d="M826 154L826 322L798 350L602 350L546 294" stroke-width="4.67" stroke="rgba(19, 130, 203, 1)"></path><path d="M819 154 a7 7 0 1 0 14 0 a7 7 0 1 0 -14 0zM539 294 a7 7 0 1 0 14 0 a7 7 0 1 0 -14 0z" fill="rgba(19, 130, 203, 1)"></path><path d="M406 462L406 406L462 350L490 350L518 378" stroke-width="4.67" stroke="rgba(19, 130, 203, 1)"></path><path d="M399 462 a7 7 0 1 0 14 0 a7 7 0 1 0 -14 0zM511 378 a7 7 0 1 0 14 0 a7 7 0 1 0 -14 0z" fill="rgba(19, 130, 203, 1)"></path><path d="M546 210L518 210L490 182" stroke-width="4.67" stroke="rgba(19, 130, 203, 1)"></path><path d="M539 210 a7 7 0 1 0 14 0 a7 7 0 1 0 -14 0zM483 182 a7 7 0 1 0 14 0 a7 7 0 1 0 -14 0z" fill="rgba(19, 130, 203, 1)"></path><path d="M378 210L462 294" stroke-width="4.67" stroke="rgba(19, 130, 203, 1)"></path><path d="M371 210 a7 7 0 1 0 14 0 a7 7 0 1 0 -14 0zM455 294 a7 7 0 1 0 14 0 a7 7 0 1 0 -14 0z" fill="rgba(19, 130, 203, 1)"></path><path d="M462 42L490 70L546 70" stroke-width="4.67" stroke="rgba(19, 130, 203, 1)"></path><path d="M455 42 a7 7 0 1 0 14 0 a7 7 0 1 0 -14 0zM539 70 a7 7 0 1 0 14 0 a7 7 0 1 0 -14 0z" fill="rgba(19, 130, 203, 1)"></path><path d="M966 154L994 182L994 210L966 238" stroke-width="4.67" stroke="rgba(19, 130, 203, 1)"></path><path d="M959 154 a7 7 0 1 0 14 0 a7 7 0 1 0 -14 0zM959 238 a7 7 0 1 0 14 0 a7 7 0 1 0 -14 0z" fill="rgba(19, 130, 203, 1)"></path><path d="M658 322L630 294L574 294" stroke-width="4.67" stroke="rgba(19, 130, 203, 1)"></path><path d="M651 322 a7 7 0 1 0 14 0 a7 7 0 1 0 -14 0zM567 294 a7 7 0 1 0 14 0 a7 7 0 1 0 -14 0z" fill="rgba(19, 130, 203, 1)"></path><path d="M742 154L798 98L798 42" stroke-width="4.67" stroke="rgba(19, 130, 203, 1)"></path><path d="M735 154 a7 7 0 1 0 14 0 a7 7 0 1 0 -14 0zM791 42 a7 7 0 1 0 14 0 a7 7 0 1 0 -14 0z" fill="rgba(19, 130, 203, 1)"></path><path d="M938 14L938 70" stroke-width="4.67" stroke="rgba(19, 130, 203, 1)"></path><path d="M931 14 a7 7 0 1 0 14 0 a7 7 0 1 0 -14 0zM931 70 a7 7 0 1 0 14 0 a7 7 0 1 0 -14 0z" fill="rgba(19, 130, 203, 1)"></path><path d="M1246 210L1302 266" stroke-width="4.67" stroke="rgba(19, 130, 203, 1)"></path><path d="M1239 210 a7 7 0 1 0 14 0 a7 7 0 1 0 -14 0zM1295 266 a7 7 0 1 0 14 0 a7 7 0 1 0 -14 0z" fill="rgba(19, 130, 203, 1)"></path><path d="M1330 546L1358 518L1386 518L1414 546" stroke-width="4.67" stroke="rgba(19, 130, 203, 1)"></path><path d="M1323 546 a7 7 0 1 0 14 0 a7 7 0 1 0 -14 0zM1407 546 a7 7 0 1 0 14 0 a7 7 0 1 0 -14 0z" fill="rgba(19, 130, 203, 1)"></path><path d="M714 294L658 294" stroke-width="4.67" stroke="rgba(19, 130, 203, 1)"></path><path d="M707 294 a7 7 0 1 0 14 0 a7 7 0 1 0 -14 0zM651 294 a7 7 0 1 0 14 0 a7 7 0 1 0 -14 0z" fill="rgba(19, 130, 203, 1)"></path><path d="M1022 238L1050 238L1078 266" stroke-width="4.67" stroke="rgba(19, 130, 203, 1)"></path><path d="M1015 238 a7 7 0 1 0 14 0 a7 7 0 1 0 -14 0zM1071 266 a7 7 0 1 0 14 0 a7 7 0 1 0 -14 0z" fill="rgba(19, 130, 203, 1)"></path><path d="M70 518L126 518L182 462" stroke-width="4.67" stroke="rgba(19, 130, 203, 1)"></path><path d="M63 518 a7 7 0 1 0 14 0 a7 7 0 1 0 -14 0zM175 462 a7 7 0 1 0 14 0 a7 7 0 1 0 -14 0z" fill="rgba(19, 130, 203, 1)"></path><path d="M1162 70L1050 70L1022 42" stroke-width="4.67" stroke="rgba(19, 130, 203, 1)"></path><path d="M1155 70 a7 7 0 1 0 14 0 a7 7 0 1 0 -14 0zM1015 42 a7 7 0 1 0 14 0 a7 7 0 1 0 -14 0z" fill="rgba(19, 130, 203, 1)"></path><path d="M434 126L406 154L378 154L350 126" stroke-width="4.67" stroke="rgba(19, 130, 203, 1)"></path><path d="M427 126 a7 7 0 1 0 14 0 a7 7 0 1 0 -14 0zM343 126 a7 7 0 1 0 14 0 a7 7 0 1 0 -14 0z" fill="rgba(19, 130, 203, 1)"></path><path d="M1134 98L1078 154L1078 182" stroke-width="4.67" stroke="rgba(19, 130, 203, 1)"></path><path d="M1127 98 a7 7 0 1 0 14 0 a7 7 0 1 0 -14 0zM1071 182 a7 7 0 1 0 14 0 a7 7 0 1 0 -14 0z" fill="rgba(19, 130, 203, 1)"></path><path d="M154 294L126 266L126 182L98 154L42 154" stroke-width="4.67" stroke="rgba(19, 130, 203, 1)"></path><path d="M147 294 a7 7 0 1 0 14 0 a7 7 0 1 0 -14 0zM35 154 a7 7 0 1 0 14 0 a7 7 0 1 0 -14 0z" fill="rgba(19, 130, 203, 1)"></path><path d="M882 238L882 266L854 294" stroke-width="4.67" stroke="rgba(19, 130, 203, 1)"></path><path d="M875 238 a7 7 0 1 0 14 0 a7 7 0 1 0 -14 0zM847 294 a7 7 0 1 0 14 0 a7 7 0 1 0 -14 0z" fill="rgba(19, 130, 203, 1)"></path><path d="M1358 70L1386 98L1414 98" stroke-width="4.67" stroke="rgba(19, 130, 203, 1)"></path><path d="M1351 70 a7 7 0 1 0 14 0 a7 7 0 1 0 -14 0zM1407 98 a7 7 0 1 0 14 0 a7 7 0 1 0 -14 0z" fill="rgba(19, 130, 203, 1)"></path><path d="M742 546L854 546" stroke-width="4.67" stroke="rgba(19, 130, 203, 1)"></path><path d="M735 546 a7 7 0 1 0 14 0 a7 7 0 1 0 -14 0zM847 546 a7 7 0 1 0 14 0 a7 7 0 1 0 -14 0z" fill="rgba(19, 130, 203, 1)"></path><path d="M182 126L238 182L294 182" stroke-width="4.67" stroke="rgba(19, 130, 203, 1)"></path><path d="M175 126 a7 7 0 1 0 14 0 a7 7 0 1 0 -14 0zM287 182 a7 7 0 1 0 14 0 a7 7 0 1 0 -14 0z" fill="rgba(19, 130, 203, 1)"></path><path d="M1274 546L1274 490L1358 406" stroke-width="4.67" stroke="rgba(19, 130, 203, 1)"></path><path d="M1267 546 a7 7 0 1 0 14 0 a7 7 0 1 0 -14 0zM1351 406 a7 7 0 1 0 14 0 a7 7 0 1 0 -14 0z" fill="rgba(19, 130, 203, 1)"></path><path d="M882 210L882 98" stroke-width="4.67" stroke="rgba(19, 130, 203, 1)"></path><path d="M875 210 a7 7 0 1 0 14 0 a7 7 0 1 0 -14 0zM875 98 a7 7 0 1 0 14 0 a7 7 0 1 0 -14 0z" fill="rgba(19, 130, 203, 1)"></path><path d="M238 434L238 490" stroke-width="4.67" stroke="rgba(19, 130, 203, 1)"></path><path d="M231 434 a7 7 0 1 0 14 0 a7 7 0 1 0 -14 0zM231 490 a7 7 0 1 0 14 0 a7 7 0 1 0 -14 0z" fill="rgba(19, 130, 203, 1)"></path><path d="M350 70L378 42L434 42L462 70" stroke-width="4.67" stroke="rgba(19, 130, 203, 1)"></path><path d="M343 70 a7 7 0 1 0 14 0 a7 7 0 1 0 -14 0zM455 70 a7 7 0 1 0 14 0 a7 7 0 1 0 -14 0z" fill="rgba(19, 130, 203, 1)"></path><path d="M714 322L770 322" stroke-width="4.67" stroke="rgba(19, 130, 203, 1)"></path><path d="M707 322 a7 7 0 1 0 14 0 a7 7 0 1 0 -14 0zM763 322 a7 7 0 1 0 14 0 a7 7 0 1 0 -14 0z" fill="rgba(19, 130, 203, 1)"></path><path d="M1330 14L1246 14" stroke-width="4.67" stroke="rgba(19, 130, 203, 1)"></path><path d="M1323 14 a7 7 0 1 0 14 0 a7 7 0 1 0 -14 0zM1239 14 a7 7 0 1 0 14 0 a7 7 0 1 0 -14 0z" fill="rgba(19, 130, 203, 1)"></path><path d="M14 490L42 462L42 434L14 406L14 378" stroke-width="4.67" stroke="rgba(19, 130, 203, 1)"></path><path d="M7 490 a7 7 0 1 0 14 0 a7 7 0 1 0 -14 0zM7 378 a7 7 0 1 0 14 0 a7 7 0 1 0 -14 0z" fill="rgba(19, 130, 203, 1)"></path><path d="M1414 406L1414 378L1442 350" stroke-width="4.67" stroke="rgba(19, 130, 203, 1)"></path><path d="M1407 406 a7 7 0 1 0 14 0 a7 7 0 1 0 -14 0zM1435 350 a7 7 0 1 0 14 0 a7 7 0 1 0 -14 0z" fill="rgba(19, 130, 203, 1)"></path><path d="M1050 406L1022 406L938 490" stroke-width="4.67" stroke="rgba(19, 130, 203, 1)"></path><path d="M1043 406 a7 7 0 1 0 14 0 a7 7 0 1 0 -14 0zM931 490 a7 7 0 1 0 14 0 a7 7 0 1 0 -14 0z" fill="rgba(19, 130, 203, 1)"></path><path d="M1218 154L1246 154L1330 238" stroke-width="4.67" stroke="rgba(19, 130, 203, 1)"></path><path d="M1211 154 a7 7 0 1 0 14 0 a7 7 0 1 0 -14 0zM1323 238 a7 7 0 1 0 14 0 a7 7 0 1 0 -14 0z" fill="rgba(19, 130, 203, 1)"></path><path d="M546 434L490 490L462 490" stroke-width="4.67" stroke="rgba(19, 130, 203, 1)"></path><path d="M539 434 a7 7 0 1 0 14 0 a7 7 0 1 0 -14 0zM455 490 a7 7 0 1 0 14 0 a7 7 0 1 0 -14 0z" fill="rgba(19, 130, 203, 1)"></path><path d="M714 462L686 462L630 406" stroke-width="4.67" stroke="rgba(19, 130, 203, 1)"></path><path d="M707 462 a7 7 0 1 0 14 0 a7 7 0 1 0 -14 0zM623 406 a7 7 0 1 0 14 0 a7 7 0 1 0 -14 0z" fill="rgba(19, 130, 203, 1)"></path><path d="M1302 322L1386 238" stroke-width="4.67" stroke="rgba(19, 130, 203, 1)"></path><path d="M1295 322 a7 7 0 1 0 14 0 a7 7 0 1 0 -14 0zM1379 238 a7 7 0 1 0 14 0 a7 7 0 1 0 -14 0z" fill="rgba(19, 130, 203, 1)"></path><path d="M1442 406L1330 518L1302 518" stroke-width="4.67" stroke="rgba(19, 130, 203, 1)"></path><path d="M1435 406 a7 7 0 1 0 14 0 a7 7 0 1 0 -14 0zM1295 518 a7 7 0 1 0 14 0 a7 7 0 1 0 -14 0z" fill="rgba(19, 130, 203, 1)"></path><path d="M770 294L770 210L798 182" stroke-width="4.67" stroke="rgba(19, 130, 203, 1)"></path><path d="M763 294 a7 7 0 1 0 14 0 a7 7 0 1 0 -14 0zM791 182 a7 7 0 1 0 14 0 a7 7 0 1 0 -14 0z" fill="rgba(19, 130, 203, 1)"></path><path d="M434 294L322 294" stroke-width="4.67" stroke="rgba(19, 130, 203, 1)"></path><path d="M427 294 a7 7 0 1 0 14 0 a7 7 0 1 0 -14 0zM315 294 a7 7 0 1 0 14 0 a7 7 0 1 0 -14 0z" fill="rgba(19, 130, 203, 1)"></path><path d="M1386 70L1386 14" stroke-width="4.67" stroke="rgba(19, 130, 203, 1)"></path><path d="M1379 70 a7 7 0 1 0 14 0 a7 7 0 1 0 -14 0zM1379 14 a7 7 0 1 0 14 0 a7 7 0 1 0 -14 0z" fill="rgba(19, 130, 203, 1)"></path><path d="M658 238L546 238" stroke-width="4.67" stroke="rgba(19, 130, 203, 1)"></path><path d="M651 238 a7 7 0 1 0 14 0 a7 7 0 1 0 -14 0zM539 238 a7 7 0 1 0 14 0 a7 7 0 1 0 -14 0z" fill="rgba(19, 130, 203, 1)"></path><path d="M1190 154L1190 238L1246 294L1274 294" stroke-width="4.67" stroke="rgba(19, 130, 203, 1)"></path><path d="M1183 154 a7 7 0 1 0 14 0 a7 7 0 1 0 -14 0zM1267 294 a7 7 0 1 0 14 0 a7 7 0 1 0 -14 0z" fill="rgba(19, 130, 203, 1)"></path><path d="M574 210L658 210" stroke-width="4.67" stroke="rgba(19, 130, 203, 1)"></path><path d="M567 210 a7 7 0 1 0 14 0 a7 7 0 1 0 -14 0zM651 210 a7 7 0 1 0 14 0 a7 7 0 1 0 -14 0z" fill="rgba(19, 130, 203, 1)"></path><path d="M1162 182L1162 126" stroke-width="4.67" stroke="rgba(19, 130, 203, 1)"></path><path d="M1155 182 a7 7 0 1 0 14 0 a7 7 0 1 0 -14 0zM1155 126 a7 7 0 1 0 14 0 a7 7 0 1 0 -14 0z" fill="rgba(19, 130, 203, 1)"></path><path d="M322 378L350 378L378 350" stroke-width="4.67" stroke="rgba(19, 130, 203, 1)"></path><path d="M315 378 a7 7 0 1 0 14 0 a7 7 0 1 0 -14 0zM371 350 a7 7 0 1 0 14 0 a7 7 0 1 0 -14 0z" fill="rgba(19, 130, 203, 1)"></path><path d="M1330 126L1330 98L1274 42" stroke-width="4.67" stroke="rgba(19, 130, 203, 1)"></path><path d="M1323 126 a7 7 0 1 0 14 0 a7 7 0 1 0 -14 0zM1267 42 a7 7 0 1 0 14 0 a7 7 0 1 0 -14 0z" fill="rgba(19, 130, 203, 1)"></path><path d="M98 210L98 266" stroke-width="4.67" stroke="rgba(19, 130, 203, 1)"></path><path d="M91 210 a7 7 0 1 0 14 0 a7 7 0 1 0 -14 0zM91 266 a7 7 0 1 0 14 0 a7 7 0 1 0 -14 0z" fill="rgba(19, 130, 203, 1)"></path><path d="M1386 434L1358 462L1330 462L1302 490" stroke-width="4.67" stroke="rgba(19, 130, 203, 1)"></path><path d="M1379 434 a7 7 0 1 0 14 0 a7 7 0 1 0 -14 0zM1295 490 a7 7 0 1 0 14 0 a7 7 0 1 0 -14 0z" fill="rgba(19, 130, 203, 1)"></path><path d="M658 546L574 546" stroke-width="4.67" stroke="rgba(19, 130, 203, 1)"></path><path d="M651 546 a7 7 0 1 0 14 0 a7 7 0 1 0 -14 0zM567 546 a7 7 0 1 0 14 0 a7 7 0 1 0 -14 0z" fill="rgba(19, 130, 203, 1)"></path><path d="M98 490L154 434L154 406" stroke-width="4.67" stroke="rgba(19, 130, 203, 1)"></path><path d="M91 490 a7 7 0 1 0 14 0 a7 7 0 1 0 -14 0zM147 406 a7 7 0 1 0 14 0 a7 7 0 1 0 -14 0z" fill="rgba(19, 130, 203, 1)"></path><path d="M1050 350L1134 350" stroke-width="4.67" stroke="rgba(19, 130, 203, 1)"></path><path d="M1043 350 a7 7 0 1 0 14 0 a7 7 0 1 0 -14 0zM1127 350 a7 7 0 1 0 14 0 a7 7 0 1 0 -14 0z" fill="rgba(19, 130, 203, 1)"></path><path d="M1414 182L1358 126L1358 98" stroke-width="4.67" stroke="rgba(19, 130, 203, 1)"></path><path d="M1407 182 a7 7 0 1 0 14 0 a7 7 0 1 0 -14 0zM1351 98 a7 7 0 1 0 14 0 a7 7 0 1 0 -14 0z" fill="rgba(19, 130, 203, 1)"></path><path d="M994 462L1050 462L1134 378" stroke-width="4.67" stroke="rgba(19, 130, 203, 1)"></path><path d="M987 462 a7 7 0 1 0 14 0 a7 7 0 1 0 -14 0zM1127 378 a7 7 0 1 0 14 0 a7 7 0 1 0 -14 0z" fill="rgba(19, 130, 203, 1)"></path><path d="M434 434L490 378" stroke-width="4.67" stroke="rgba(19, 130, 203, 1)"></path><path d="M427 434 a7 7 0 1 0 14 0 a7 7 0 1 0 -14 0zM483 378 a7 7 0 1 0 14 0 a7 7 0 1 0 -14 0z" fill="rgba(19, 130, 203, 1)"></path><path d="M322 350L266 350" stroke-width="4.67" stroke="rgba(19, 130, 203, 1)"></path><path d="M315 350 a7 7 0 1 0 14 0 a7 7 0 1 0 -14 0zM259 350 a7 7 0 1 0 14 0 a7 7 0 1 0 -14 0z" fill="rgba(19, 130, 203, 1)"></path><path d="M630 42L630 70L602 98" stroke-width="4.67" stroke="rgba(19, 130, 203, 1)"></path><path d="M623 42 a7 7 0 1 0 14 0 a7 7 0 1 0 -14 0zM595 98 a7 7 0 1 0 14 0 a7 7 0 1 0 -14 0z" fill="rgba(19, 130, 203, 1)"></path><path d="M350 546L406 546" stroke-width="4.67" stroke="rgba(19, 130, 203, 1)"></path><path d="M343 546 a7 7 0 1 0 14 0 a7 7 0 1 0 -14 0zM399 546 a7 7 0 1 0 14 0 a7 7 0 1 0 -14 0z" fill="rgba(19, 130, 203, 1)"></path><path d="M574 182L518 182" stroke-width="4.67" stroke="rgba(19, 130, 203, 1)"></path><path d="M567 182 a7 7 0 1 0 14 0 a7 7 0 1 0 -14 0zM511 182 a7 7 0 1 0 14 0 a7 7 0 1 0 -14 0z" fill="rgba(19, 130, 203, 1)"></path></g></g><defs><mask id="SvgjsMask1119"><rect width="1440" height="560" fill="#ffffff"></rect></mask><mask id="SvgjsMask1120"><rect width="1440" height="560" fill="white"></rect><path d="M1186.5 546 a3.5 3.5 0 1 0 7 0 a3.5 3.5 0 1 0 -7 0zM962.5 14 a3.5 3.5 0 1 0 7 0 a3.5 3.5 0 1 0 -7 0z" fill="black"></path><path d="M122.5 70 a3.5 3.5 0 1 0 7 0 a3.5 3.5 0 1 0 -7 0zM654.5 462 a3.5 3.5 0 1 0 7 0 a3.5 3.5 0 1 0 -7 0z" fill="black"></path><path d="M878.5 350 a3.5 3.5 0 1 0 7 0 a3.5 3.5 0 1 0 -7 0zM1018.5 210 a3.5 3.5 0 1 0 7 0 a3.5 3.5 0 1 0 -7 0z" fill="black"></path><path d="M234.5 322 a3.5 3.5 0 1 0 7 0 a3.5 3.5 0 1 0 -7 0zM10.5 98 a3.5 3.5 0 1 0 7 0 a3.5 3.5 0 1 0 -7 0z" fill="black"></path><path d="M1382.5 406 a3.5 3.5 0 1 0 7 0 a3.5 3.5 0 1 0 -7 0zM1438.5 14 a3.5 3.5 0 1 0 7 0 a3.5 3.5 0 1 0 -7 0z" fill="black"></path><path d="M206.5 518 a3.5 3.5 0 1 0 7 0 a3.5 3.5 0 1 0 -7 0zM626.5 462 a3.5 3.5 0 1 0 7 0 a3.5 3.5 0 1 0 -7 0z" fill="black"></path><path d="M542.5 98 a3.5 3.5 0 1 0 7 0 a3.5 3.5 0 1 0 -7 0zM10.5 70 a3.5 3.5 0 1 0 7 0 a3.5 3.5 0 1 0 -7 0z" fill="black"></path><path d="M234.5 126 a3.5 3.5 0 1 0 7 0 a3.5 3.5 0 1 0 -7 0zM10.5 546 a3.5 3.5 0 1 0 7 0 a3.5 3.5 0 1 0 -7 0z" fill="black"></path><path d="M1186.5 42 a3.5 3.5 0 1 0 7 0 a3.5 3.5 0 1 0 -7 0zM1214.5 546 a3.5 3.5 0 1 0 7 0 a3.5 3.5 0 1 0 -7 0z" fill="black"></path><path d="M710.5 154 a3.5 3.5 0 1 0 7 0 a3.5 3.5 0 1 0 -7 0zM402.5 182 a3.5 3.5 0 1 0 7 0 a3.5 3.5 0 1 0 -7 0z" fill="black"></path><path d="M262.5 462 a3.5 3.5 0 1 0 7 0 a3.5 3.5 0 1 0 -7 0zM542.5 378 a3.5 3.5 0 1 0 7 0 a3.5 3.5 0 1 0 -7 0z" fill="black"></path><path d="M626.5 518 a3.5 3.5 0 1 0 7 0 a3.5 3.5 0 1 0 -7 0zM1158.5 378 a3.5 3.5 0 1 0 7 0 a3.5 3.5 0 1 0 -7 0z" fill="black"></path><path d="M1214.5 14 a3.5 3.5 0 1 0 7 0 a3.5 3.5 0 1 0 -7 0zM1242.5 546 a3.5 3.5 0 1 0 7 0 a3.5 3.5 0 1 0 -7 0z" fill="black"></path><path d="M906.5 70 a3.5 3.5 0 1 0 7 0 a3.5 3.5 0 1 0 -7 0zM626.5 490 a3.5 3.5 0 1 0 7 0 a3.5 3.5 0 1 0 -7 0z" fill="black"></path><path d="M94.5 294 a3.5 3.5 0 1 0 7 0 a3.5 3.5 0 1 0 -7 0zM10.5 126 a3.5 3.5 0 1 0 7 0 a3.5 3.5 0 1 0 -7 0z" fill="black"></path><path d="M1298.5 182 a3.5 3.5 0 1 0 7 0 a3.5 3.5 0 1 0 -7 0zM1130.5 266 a3.5 3.5 0 1 0 7 0 a3.5 3.5 0 1 0 -7 0z" fill="black"></path><path d="M878.5 546 a3.5 3.5 0 1 0 7 0 a3.5 3.5 0 1 0 -7 0zM1158.5 546 a3.5 3.5 0 1 0 7 0 a3.5 3.5 0 1 0 -7 0z" fill="black"></path><path d="M150.5 350 a3.5 3.5 0 1 0 7 0 a3.5 3.5 0 1 0 -7 0zM10.5 350 a3.5 3.5 0 1 0 7 0 a3.5 3.5 0 1 0 -7 0z" fill="black"></path><path d="M66.5 434 a3.5 3.5 0 1 0 7 0 a3.5 3.5 0 1 0 -7 0zM122.5 378 a3.5 3.5 0 1 0 7 0 a3.5 3.5 0 1 0 -7 0z" fill="black"></path><path d="M1158.5 406 a3.5 3.5 0 1 0 7 0 a3.5 3.5 0 1 0 -7 0zM1158.5 518 a3.5 3.5 0 1 0 7 0 a3.5 3.5 0 1 0 -7 0z" fill="black"></path><path d="M66.5 322 a3.5 3.5 0 1 0 7 0 a3.5 3.5 0 1 0 -7 0zM10.5 238 a3.5 3.5 0 1 0 7 0 a3.5 3.5 0 1 0 -7 0z" fill="black"></path><path d="M850.5 238 a3.5 3.5 0 1 0 7 0 a3.5 3.5 0 1 0 -7 0zM514.5 126 a3.5 3.5 0 1 0 7 0 a3.5 3.5 0 1 0 -7 0z" fill="black"></path><path d="M122.5 154 a3.5 3.5 0 1 0 7 0 a3.5 3.5 0 1 0 -7 0zM234.5 266 a3.5 3.5 0 1 0 7 0 a3.5 3.5 0 1 0 -7 0z" fill="black"></path><path d="M1102.5 182 a3.5 3.5 0 1 0 7 0 a3.5 3.5 0 1 0 -7 0zM1242.5 322 a3.5 3.5 0 1 0 7 0 a3.5 3.5 0 1 0 -7 0z" fill="black"></path><path d="M1074.5 294 a3.5 3.5 0 1 0 7 0 a3.5 3.5 0 1 0 -7 0zM738.5 490 a3.5 3.5 0 1 0 7 0 a3.5 3.5 0 1 0 -7 0z" fill="black"></path><path d="M570.5 350 a3.5 3.5 0 1 0 7 0 a3.5 3.5 0 1 0 -7 0zM430.5 182 a3.5 3.5 0 1 0 7 0 a3.5 3.5 0 1 0 -7 0z" fill="black"></path><path d="M486.5 14 a3.5 3.5 0 1 0 7 0 a3.5 3.5 0 1 0 -7 0zM262.5 14 a3.5 3.5 0 1 0 7 0 a3.5 3.5 0 1 0 -7 0z" fill="black"></path><path d="M794.5 154 a3.5 3.5 0 1 0 7 0 a3.5 3.5 0 1 0 -7 0zM542.5 266 a3.5 3.5 0 1 0 7 0 a3.5 3.5 0 1 0 -7 0z" fill="black"></path><path d="M570.5 98 a3.5 3.5 0 1 0 7 0 a3.5 3.5 0 1 0 -7 0zM570.5 14 a3.5 3.5 0 1 0 7 0 a3.5 3.5 0 1 0 -7 0z" fill="black"></path><path d="M206.5 350 a3.5 3.5 0 1 0 7 0 a3.5 3.5 0 1 0 -7 0zM38.5 546 a3.5 3.5 0 1 0 7 0 a3.5 3.5 0 1 0 -7 0z" fill="black"></path><path d="M178.5 434 a3.5 3.5 0 1 0 7 0 a3.5 3.5 0 1 0 -7 0zM178.5 378 a3.5 3.5 0 1 0 7 0 a3.5 3.5 0 1 0 -7 0z" fill="black"></path><path d="M738.5 182 a3.5 3.5 0 1 0 7 0 a3.5 3.5 0 1 0 -7 0zM822.5 42 a3.5 3.5 0 1 0 7 0 a3.5 3.5 0 1 0 -7 0z" fill="black"></path><path d="M122.5 14 a3.5 3.5 0 1 0 7 0 a3.5 3.5 0 1 0 -7 0zM10.5 14 a3.5 3.5 0 1 0 7 0 a3.5 3.5 0 1 0 -7 0z" fill="black"></path><path d="M1130.5 434 a3.5 3.5 0 1 0 7 0 a3.5 3.5 0 1 0 -7 0zM1046.5 518 a3.5 3.5 0 1 0 7 0 a3.5 3.5 0 1 0 -7 0z" fill="black"></path><path d="M430.5 350 a3.5 3.5 0 1 0 7 0 a3.5 3.5 0 1 0 -7 0zM514.5 350 a3.5 3.5 0 1 0 7 0 a3.5 3.5 0 1 0 -7 0z" fill="black"></path><path d="M654.5 182 a3.5 3.5 0 1 0 7 0 a3.5 3.5 0 1 0 -7 0zM710.5 210 a3.5 3.5 0 1 0 7 0 a3.5 3.5 0 1 0 -7 0z" fill="black"></path><path d="M1382.5 322 a3.5 3.5 0 1 0 7 0 a3.5 3.5 0 1 0 -7 0zM1242.5 378 a3.5 3.5 0 1 0 7 0 a3.5 3.5 0 1 0 -7 0z" fill="black"></path><path d="M598.5 378 a3.5 3.5 0 1 0 7 0 a3.5 3.5 0 1 0 -7 0zM878.5 42 a3.5 3.5 0 1 0 7 0 a3.5 3.5 0 1 0 -7 0z" fill="black"></path><path d="M934.5 378 a3.5 3.5 0 1 0 7 0 a3.5 3.5 0 1 0 -7 0zM1158.5 350 a3.5 3.5 0 1 0 7 0 a3.5 3.5 0 1 0 -7 0z" fill="black"></path><path d="M178.5 238 a3.5 3.5 0 1 0 7 0 a3.5 3.5 0 1 0 -7 0zM94.5 322 a3.5 3.5 0 1 0 7 0 a3.5 3.5 0 1 0 -7 0z" fill="black"></path><path d="M990.5 406 a3.5 3.5 0 1 0 7 0 a3.5 3.5 0 1 0 -7 0zM794.5 490 a3.5 3.5 0 1 0 7 0 a3.5 3.5 0 1 0 -7 0z" fill="black"></path><path d="M346.5 406 a3.5 3.5 0 1 0 7 0 a3.5 3.5 0 1 0 -7 0zM402.5 350 a3.5 3.5 0 1 0 7 0 a3.5 3.5 0 1 0 -7 0z" fill="black"></path><path d="M234.5 210 a3.5 3.5 0 1 0 7 0 a3.5 3.5 0 1 0 -7 0zM38.5 126 a3.5 3.5 0 1 0 7 0 a3.5 3.5 0 1 0 -7 0z" fill="black"></path><path d="M1382.5 490 a3.5 3.5 0 1 0 7 0 a3.5 3.5 0 1 0 -7 0zM1438.5 546 a3.5 3.5 0 1 0 7 0 a3.5 3.5 0 1 0 -7 0z" fill="black"></path><path d="M262.5 406 a3.5 3.5 0 1 0 7 0 a3.5 3.5 0 1 0 -7 0zM318.5 434 a3.5 3.5 0 1 0 7 0 a3.5 3.5 0 1 0 -7 0z" fill="black"></path><path d="M766.5 42 a3.5 3.5 0 1 0 7 0 a3.5 3.5 0 1 0 -7 0zM626.5 126 a3.5 3.5 0 1 0 7 0 a3.5 3.5 0 1 0 -7 0z" fill="black"></path><path d="M906.5 378 a3.5 3.5 0 1 0 7 0 a3.5 3.5 0 1 0 -7 0zM962.5 406 a3.5 3.5 0 1 0 7 0 a3.5 3.5 0 1 0 -7 0z" fill="black"></path><path d="M822.5 154 a3.5 3.5 0 1 0 7 0 a3.5 3.5 0 1 0 -7 0zM542.5 294 a3.5 3.5 0 1 0 7 0 a3.5 3.5 0 1 0 -7 0z" fill="black"></path><path d="M402.5 462 a3.5 3.5 0 1 0 7 0 a3.5 3.5 0 1 0 -7 0zM514.5 378 a3.5 3.5 0 1 0 7 0 a3.5 3.5 0 1 0 -7 0z" fill="black"></path><path d="M542.5 210 a3.5 3.5 0 1 0 7 0 a3.5 3.5 0 1 0 -7 0zM486.5 182 a3.5 3.5 0 1 0 7 0 a3.5 3.5 0 1 0 -7 0z" fill="black"></path><path d="M374.5 210 a3.5 3.5 0 1 0 7 0 a3.5 3.5 0 1 0 -7 0zM458.5 294 a3.5 3.5 0 1 0 7 0 a3.5 3.5 0 1 0 -7 0z" fill="black"></path><path d="M458.5 42 a3.5 3.5 0 1 0 7 0 a3.5 3.5 0 1 0 -7 0zM542.5 70 a3.5 3.5 0 1 0 7 0 a3.5 3.5 0 1 0 -7 0z" fill="black"></path><path d="M962.5 154 a3.5 3.5 0 1 0 7 0 a3.5 3.5 0 1 0 -7 0zM962.5 238 a3.5 3.5 0 1 0 7 0 a3.5 3.5 0 1 0 -7 0z" fill="black"></path><path d="M654.5 322 a3.5 3.5 0 1 0 7 0 a3.5 3.5 0 1 0 -7 0zM570.5 294 a3.5 3.5 0 1 0 7 0 a3.5 3.5 0 1 0 -7 0z" fill="black"></path><path d="M738.5 154 a3.5 3.5 0 1 0 7 0 a3.5 3.5 0 1 0 -7 0zM794.5 42 a3.5 3.5 0 1 0 7 0 a3.5 3.5 0 1 0 -7 0z" fill="black"></path><path d="M934.5 14 a3.5 3.5 0 1 0 7 0 a3.5 3.5 0 1 0 -7 0zM934.5 70 a3.5 3.5 0 1 0 7 0 a3.5 3.5 0 1 0 -7 0z" fill="black"></path><path d="M1242.5 210 a3.5 3.5 0 1 0 7 0 a3.5 3.5 0 1 0 -7 0zM1298.5 266 a3.5 3.5 0 1 0 7 0 a3.5 3.5 0 1 0 -7 0z" fill="black"></path><path d="M1326.5 546 a3.5 3.5 0 1 0 7 0 a3.5 3.5 0 1 0 -7 0zM1410.5 546 a3.5 3.5 0 1 0 7 0 a3.5 3.5 0 1 0 -7 0z" fill="black"></path><path d="M710.5 294 a3.5 3.5 0 1 0 7 0 a3.5 3.5 0 1 0 -7 0zM654.5 294 a3.5 3.5 0 1 0 7 0 a3.5 3.5 0 1 0 -7 0z" fill="black"></path><path d="M1018.5 238 a3.5 3.5 0 1 0 7 0 a3.5 3.5 0 1 0 -7 0zM1074.5 266 a3.5 3.5 0 1 0 7 0 a3.5 3.5 0 1 0 -7 0z" fill="black"></path><path d="M66.5 518 a3.5 3.5 0 1 0 7 0 a3.5 3.5 0 1 0 -7 0zM178.5 462 a3.5 3.5 0 1 0 7 0 a3.5 3.5 0 1 0 -7 0z" fill="black"></path><path d="M1158.5 70 a3.5 3.5 0 1 0 7 0 a3.5 3.5 0 1 0 -7 0zM1018.5 42 a3.5 3.5 0 1 0 7 0 a3.5 3.5 0 1 0 -7 0z" fill="black"></path><path d="M430.5 126 a3.5 3.5 0 1 0 7 0 a3.5 3.5 0 1 0 -7 0zM346.5 126 a3.5 3.5 0 1 0 7 0 a3.5 3.5 0 1 0 -7 0z" fill="black"></path><path d="M1130.5 98 a3.5 3.5 0 1 0 7 0 a3.5 3.5 0 1 0 -7 0zM1074.5 182 a3.5 3.5 0 1 0 7 0 a3.5 3.5 0 1 0 -7 0z" fill="black"></path><path d="M150.5 294 a3.5 3.5 0 1 0 7 0 a3.5 3.5 0 1 0 -7 0zM38.5 154 a3.5 3.5 0 1 0 7 0 a3.5 3.5 0 1 0 -7 0z" fill="black"></path><path d="M878.5 238 a3.5 3.5 0 1 0 7 0 a3.5 3.5 0 1 0 -7 0zM850.5 294 a3.5 3.5 0 1 0 7 0 a3.5 3.5 0 1 0 -7 0z" fill="black"></path><path d="M1354.5 70 a3.5 3.5 0 1 0 7 0 a3.5 3.5 0 1 0 -7 0zM1410.5 98 a3.5 3.5 0 1 0 7 0 a3.5 3.5 0 1 0 -7 0z" fill="black"></path><path d="M738.5 546 a3.5 3.5 0 1 0 7 0 a3.5 3.5 0 1 0 -7 0zM850.5 546 a3.5 3.5 0 1 0 7 0 a3.5 3.5 0 1 0 -7 0z" fill="black"></path><path d="M178.5 126 a3.5 3.5 0 1 0 7 0 a3.5 3.5 0 1 0 -7 0zM290.5 182 a3.5 3.5 0 1 0 7 0 a3.5 3.5 0 1 0 -7 0z" fill="black"></path><path d="M1270.5 546 a3.5 3.5 0 1 0 7 0 a3.5 3.5 0 1 0 -7 0zM1354.5 406 a3.5 3.5 0 1 0 7 0 a3.5 3.5 0 1 0 -7 0z" fill="black"></path><path d="M878.5 210 a3.5 3.5 0 1 0 7 0 a3.5 3.5 0 1 0 -7 0zM878.5 98 a3.5 3.5 0 1 0 7 0 a3.5 3.5 0 1 0 -7 0z" fill="black"></path><path d="M234.5 434 a3.5 3.5 0 1 0 7 0 a3.5 3.5 0 1 0 -7 0zM234.5 490 a3.5 3.5 0 1 0 7 0 a3.5 3.5 0 1 0 -7 0z" fill="black"></path><path d="M346.5 70 a3.5 3.5 0 1 0 7 0 a3.5 3.5 0 1 0 -7 0zM458.5 70 a3.5 3.5 0 1 0 7 0 a3.5 3.5 0 1 0 -7 0z" fill="black"></path><path d="M710.5 322 a3.5 3.5 0 1 0 7 0 a3.5 3.5 0 1 0 -7 0zM766.5 322 a3.5 3.5 0 1 0 7 0 a3.5 3.5 0 1 0 -7 0z" fill="black"></path><path d="M1326.5 14 a3.5 3.5 0 1 0 7 0 a3.5 3.5 0 1 0 -7 0zM1242.5 14 a3.5 3.5 0 1 0 7 0 a3.5 3.5 0 1 0 -7 0z" fill="black"></path><path d="M10.5 490 a3.5 3.5 0 1 0 7 0 a3.5 3.5 0 1 0 -7 0zM10.5 378 a3.5 3.5 0 1 0 7 0 a3.5 3.5 0 1 0 -7 0z" fill="black"></path><path d="M1410.5 406 a3.5 3.5 0 1 0 7 0 a3.5 3.5 0 1 0 -7 0zM1438.5 350 a3.5 3.5 0 1 0 7 0 a3.5 3.5 0 1 0 -7 0z" fill="black"></path><path d="M1046.5 406 a3.5 3.5 0 1 0 7 0 a3.5 3.5 0 1 0 -7 0zM934.5 490 a3.5 3.5 0 1 0 7 0 a3.5 3.5 0 1 0 -7 0z" fill="black"></path><path d="M1214.5 154 a3.5 3.5 0 1 0 7 0 a3.5 3.5 0 1 0 -7 0zM1326.5 238 a3.5 3.5 0 1 0 7 0 a3.5 3.5 0 1 0 -7 0z" fill="black"></path><path d="M542.5 434 a3.5 3.5 0 1 0 7 0 a3.5 3.5 0 1 0 -7 0zM458.5 490 a3.5 3.5 0 1 0 7 0 a3.5 3.5 0 1 0 -7 0z" fill="black"></path><path d="M710.5 462 a3.5 3.5 0 1 0 7 0 a3.5 3.5 0 1 0 -7 0zM626.5 406 a3.5 3.5 0 1 0 7 0 a3.5 3.5 0 1 0 -7 0z" fill="black"></path><path d="M1298.5 322 a3.5 3.5 0 1 0 7 0 a3.5 3.5 0 1 0 -7 0zM1382.5 238 a3.5 3.5 0 1 0 7 0 a3.5 3.5 0 1 0 -7 0z" fill="black"></path><path d="M1438.5 406 a3.5 3.5 0 1 0 7 0 a3.5 3.5 0 1 0 -7 0zM1298.5 518 a3.5 3.5 0 1 0 7 0 a3.5 3.5 0 1 0 -7 0z" fill="black"></path><path d="M766.5 294 a3.5 3.5 0 1 0 7 0 a3.5 3.5 0 1 0 -7 0zM794.5 182 a3.5 3.5 0 1 0 7 0 a3.5 3.5 0 1 0 -7 0z" fill="black"></path><path d="M430.5 294 a3.5 3.5 0 1 0 7 0 a3.5 3.5 0 1 0 -7 0zM318.5 294 a3.5 3.5 0 1 0 7 0 a3.5 3.5 0 1 0 -7 0z" fill="black"></path><path d="M1382.5 70 a3.5 3.5 0 1 0 7 0 a3.5 3.5 0 1 0 -7 0zM1382.5 14 a3.5 3.5 0 1 0 7 0 a3.5 3.5 0 1 0 -7 0z" fill="black"></path><path d="M654.5 238 a3.5 3.5 0 1 0 7 0 a3.5 3.5 0 1 0 -7 0zM542.5 238 a3.5 3.5 0 1 0 7 0 a3.5 3.5 0 1 0 -7 0z" fill="black"></path><path d="M1186.5 154 a3.5 3.5 0 1 0 7 0 a3.5 3.5 0 1 0 -7 0zM1270.5 294 a3.5 3.5 0 1 0 7 0 a3.5 3.5 0 1 0 -7 0z" fill="black"></path><path d="M570.5 210 a3.5 3.5 0 1 0 7 0 a3.5 3.5 0 1 0 -7 0zM654.5 210 a3.5 3.5 0 1 0 7 0 a3.5 3.5 0 1 0 -7 0z" fill="black"></path><path d="M1158.5 182 a3.5 3.5 0 1 0 7 0 a3.5 3.5 0 1 0 -7 0zM1158.5 126 a3.5 3.5 0 1 0 7 0 a3.5 3.5 0 1 0 -7 0z" fill="black"></path><path d="M318.5 378 a3.5 3.5 0 1 0 7 0 a3.5 3.5 0 1 0 -7 0zM374.5 350 a3.5 3.5 0 1 0 7 0 a3.5 3.5 0 1 0 -7 0z" fill="black"></path><path d="M1326.5 126 a3.5 3.5 0 1 0 7 0 a3.5 3.5 0 1 0 -7 0zM1270.5 42 a3.5 3.5 0 1 0 7 0 a3.5 3.5 0 1 0 -7 0z" fill="black"></path><path d="M94.5 210 a3.5 3.5 0 1 0 7 0 a3.5 3.5 0 1 0 -7 0zM94.5 266 a3.5 3.5 0 1 0 7 0 a3.5 3.5 0 1 0 -7 0z" fill="black"></path><path d="M1382.5 434 a3.5 3.5 0 1 0 7 0 a3.5 3.5 0 1 0 -7 0zM1298.5 490 a3.5 3.5 0 1 0 7 0 a3.5 3.5 0 1 0 -7 0z" fill="black"></path><path d="M654.5 546 a3.5 3.5 0 1 0 7 0 a3.5 3.5 0 1 0 -7 0zM570.5 546 a3.5 3.5 0 1 0 7 0 a3.5 3.5 0 1 0 -7 0z" fill="black"></path><path d="M94.5 490 a3.5 3.5 0 1 0 7 0 a3.5 3.5 0 1 0 -7 0zM150.5 406 a3.5 3.5 0 1 0 7 0 a3.5 3.5 0 1 0 -7 0z" fill="black"></path><path d="M1046.5 350 a3.5 3.5 0 1 0 7 0 a3.5 3.5 0 1 0 -7 0zM1130.5 350 a3.5 3.5 0 1 0 7 0 a3.5 3.5 0 1 0 -7 0z" fill="black"></path><path d="M1410.5 182 a3.5 3.5 0 1 0 7 0 a3.5 3.5 0 1 0 -7 0zM1354.5 98 a3.5 3.5 0 1 0 7 0 a3.5 3.5 0 1 0 -7 0z" fill="black"></path><path d="M990.5 462 a3.5 3.5 0 1 0 7 0 a3.5 3.5 0 1 0 -7 0zM1130.5 378 a3.5 3.5 0 1 0 7 0 a3.5 3.5 0 1 0 -7 0z" fill="black"></path><path d="M430.5 434 a3.5 3.5 0 1 0 7 0 a3.5 3.5 0 1 0 -7 0zM486.5 378 a3.5 3.5 0 1 0 7 0 a3.5 3.5 0 1 0 -7 0z" fill="black"></path><path d="M318.5 350 a3.5 3.5 0 1 0 7 0 a3.5 3.5 0 1 0 -7 0zM262.5 350 a3.5 3.5 0 1 0 7 0 a3.5 3.5 0 1 0 -7 0z" fill="black"></path><path d="M626.5 42 a3.5 3.5 0 1 0 7 0 a3.5 3.5 0 1 0 -7 0zM598.5 98 a3.5 3.5 0 1 0 7 0 a3.5 3.5 0 1 0 -7 0z" fill="black"></path><path d="M346.5 546 a3.5 3.5 0 1 0 7 0 a3.5 3.5 0 1 0 -7 0zM402.5 546 a3.5 3.5 0 1 0 7 0 a3.5 3.5 0 1 0 -7 0z" fill="black"></path><path d="M570.5 182 a3.5 3.5 0 1 0 7 0 a3.5 3.5 0 1 0 -7 0zM514.5 182 a3.5 3.5 0 1 0 7 0 a3.5 3.5 0 1 0 -7 0z" fill="black"></path></mask></defs></svg>